<svg t="1761871206798" class="icon" viewBox="0 0 1024 1024" version="1.1" xmlns="http://www.w3.org/2000/svg" p-id="9748" id="mx_n_1761871206799" width="256" height="256"><path d="M482.048 74.24a64 64 0 0 1 59.904 0L883.2 254.912a64 64 0 0 1 34.048 56.576v400.96a64 64 0 0 1-34.048 56.576L541.952 949.76a64 64 0 0 1-59.904 0l-341.312-180.736a64 64 0 0 1-34.048-56.576V311.488a64 64 0 0 1 34.048-56.576L482.048 74.24zM192 369.536v330.112l277.312 146.816V516.352L192 369.536z m362.624 146.816v330.112L832 699.648V369.536L554.624 516.352z m228.864-217.728L512 154.944 240.512 298.624 512 442.368l271.488-143.744z" p-id="9749" fill="#1296db"></path></svg>